<svg width="42" height="42" viewBox="0 0 42 42" fill="none" xmlns="http://www.w3.org/2000/svg">
<path d="M38.0133 32.1727L36.6516 27.1032L31.2211 6.80868C31.0597 6.22071 30.6727 5.72022 30.1443 5.41606C29.6159 5.1119 28.9887 5.02867 28.3992 5.18446L23.3297 6.54618C23.2031 6.57825 23.0816 6.62796 22.9688 6.69384C22.7648 6.35375 22.4763 6.07226 22.1313 5.87676C21.7863 5.68125 21.3965 5.5784 21 5.57821H15.75C15.2806 5.57555 14.8219 5.71889 14.4375 5.98837C14.0531 5.71889 13.5944 5.57555 13.125 5.57821H7.875C7.26583 5.57821 6.68161 5.82021 6.25086 6.25095C5.82012 6.6817 5.57812 7.26592 5.57812 7.87509V34.1251C5.57812 34.7343 5.82012 35.3185 6.25086 35.7492C6.68161 36.18 7.26583 36.422 7.875 36.422H13.125C13.5944 36.4246 14.0531 36.2813 14.4375 36.0118C14.8219 36.2813 15.2806 36.4246 15.75 36.422H21C21.6092 36.422 22.1934 36.18 22.6241 35.7492C23.0549 35.3185 23.2969 34.7343 23.2969 34.1251V15.2907L28.4977 34.7157C28.6309 35.2055 28.9215 35.6379 29.3247 35.9463C29.7279 36.2546 30.2213 36.4218 30.7289 36.422C30.9284 36.4188 31.1267 36.3913 31.3195 36.3399L36.3891 34.9782C36.9758 34.8205 37.4761 34.4367 37.7805 33.9109C38.085 33.3851 38.1686 32.7601 38.0133 32.1727V32.1727ZM25.2164 14.8806L30.9258 13.3548L34.5023 26.6602L28.793 28.186L25.2164 14.8806ZM23.6414 8.61337C23.6835 8.5354 23.754 8.47665 23.8383 8.44931L28.9078 7.08759H28.9898C29.0611 7.0892 29.1303 7.11187 29.1887 7.15274C29.2471 7.19362 29.2921 7.25087 29.318 7.31728L30.4172 11.4517L24.7078 12.9774L23.6086 8.85946C23.5886 8.77621 23.6003 8.68847 23.6414 8.61337V8.61337ZM15.75 7.54696H21C21.087 7.54696 21.1705 7.58153 21.232 7.64307C21.2936 7.70461 21.3281 7.78807 21.3281 7.87509V27.8907H15.4219V7.87509C15.4219 7.78807 15.4564 7.70461 15.518 7.64307C15.5795 7.58153 15.663 7.54696 15.75 7.54696ZM7.875 7.54696H13.125C13.212 7.54696 13.2955 7.58153 13.357 7.64307C13.4186 7.70461 13.4531 7.78807 13.4531 7.87509V12.1407H7.54688V7.87509C7.54688 7.78807 7.58144 7.70461 7.64298 7.64307C7.70452 7.58153 7.78798 7.54696 7.875 7.54696ZM13.125 34.4532H7.875C7.78798 34.4532 7.70452 34.4186 7.64298 34.3571C7.58144 34.2956 7.54688 34.2121 7.54688 34.1251V14.1095H13.4531V34.1251C13.4531 34.2121 13.4186 34.2956 13.357 34.3571C13.2955 34.4186 13.212 34.4532 13.125 34.4532ZM21 34.4532H15.75C15.663 34.4532 15.5795 34.4186 15.518 34.3571C15.4564 34.2956 15.4219 34.2121 15.4219 34.1251V29.8595H21.3281V34.1251C21.3281 34.2121 21.2936 34.2956 21.232 34.3571C21.1705 34.4186 21.087 34.4532 21 34.4532ZM35.8805 33.0751L30.8109 34.4368C30.7689 34.4493 30.7249 34.4532 30.6813 34.4483C30.6378 34.4434 30.5956 34.4299 30.5574 34.4085C30.5192 34.3871 30.4856 34.3582 30.4587 34.3237C30.4318 34.2891 30.4121 34.2494 30.4008 34.2071L29.3016 30.0892L35.0109 28.5634L36.1102 32.6813C36.1225 32.7223 36.1262 32.7653 36.1212 32.8078C36.1161 32.8502 36.1024 32.8912 36.0809 32.9281C36.0593 32.9651 36.0304 32.9972 35.996 33.0224C35.9615 33.0477 35.9222 33.0656 35.8805 33.0751V33.0751Z" fill="#333333"/>
</svg>
