<svg width="42" height="42" viewBox="0 0 42 42" fill="none" xmlns="http://www.w3.org/2000/svg">
<path fill-rule="evenodd" clip-rule="evenodd" d="M31.5 14C31.5 13.3038 31.7766 12.6361 32.2688 12.1438C32.7611 11.6516 33.4288 11.375 34.125 11.375C34.8212 11.375 35.4889 11.6516 35.9812 12.1438C36.4734 12.6361 36.75 13.3038 36.75 14V31.7651L34.125 35.7026L31.5 31.7651V14ZM34.125 13.125C33.8929 13.125 33.6704 13.2172 33.5063 13.3813C33.3422 13.5454 33.25 13.7679 33.25 14V31.2349L34.125 32.5474L35 31.2349V14C35 13.7679 34.9078 13.5454 34.7437 13.3813C34.5796 13.2172 34.3571 13.125 34.125 13.125Z" fill="#333333"/>
<path fill-rule="evenodd" clip-rule="evenodd" d="M35.875 17.5H32.375V15.75H35.875V17.5ZM8.75 7C8.28587 7 7.84075 7.18437 7.51256 7.51256C7.18437 7.84075 7 8.28587 7 8.75V33.25C7 33.7141 7.18437 34.1592 7.51256 34.4874C7.84075 34.8156 8.28587 35 8.75 35H26.25C26.7141 35 27.1592 34.8156 27.4874 34.4874C27.8156 34.1592 28 33.7141 28 33.25V8.75C28 8.28587 27.8156 7.84075 27.4874 7.51256C27.1592 7.18437 26.7141 7 26.25 7H8.75ZM5.25 8.75C5.25 7.82174 5.61875 6.9315 6.27513 6.27513C6.9315 5.61875 7.82174 5.25 8.75 5.25H26.25C27.1783 5.25 28.0685 5.61875 28.7249 6.27513C29.3813 6.9315 29.75 7.82174 29.75 8.75V33.25C29.75 34.1783 29.3813 35.0685 28.7249 35.7249C28.0685 36.3813 27.1783 36.75 26.25 36.75H8.75C7.82174 36.75 6.9315 36.3813 6.27513 35.7249C5.61875 35.0685 5.25 34.1783 5.25 33.25V8.75Z" fill="#333333"/>
<path fill-rule="evenodd" clip-rule="evenodd" d="M17.5 13.125C17.5 12.8929 17.5922 12.6704 17.7563 12.5063C17.9204 12.3422 18.1429 12.25 18.375 12.25H25.375C25.6071 12.25 25.8296 12.3422 25.9937 12.5063C26.1578 12.6704 26.25 12.8929 26.25 13.125C26.25 13.3571 26.1578 13.5796 25.9937 13.7437C25.8296 13.9078 25.6071 14 25.375 14H18.375C18.1429 14 17.9204 13.9078 17.7563 13.7437C17.5922 13.5796 17.5 13.3571 17.5 13.125ZM17.5 16.625C17.5 16.3929 17.5922 16.1704 17.7563 16.0063C17.9204 15.8422 18.1429 15.75 18.375 15.75H25.375C25.6071 15.75 25.8296 15.8422 25.9937 16.0063C26.1578 16.1704 26.25 16.3929 26.25 16.625C26.25 16.8571 26.1578 17.0796 25.9937 17.2437C25.8296 17.4078 25.6071 17.5 25.375 17.5H18.375C18.1429 17.5 17.9204 17.4078 17.7563 17.2437C17.5922 17.0796 17.5 16.8571 17.5 16.625ZM17.5 24.5C17.5 24.2679 17.5922 24.0454 17.7563 23.8813C17.9204 23.7172 18.1429 23.625 18.375 23.625H25.375C25.6071 23.625 25.8296 23.7172 25.9937 23.8813C26.1578 24.0454 26.25 24.2679 26.25 24.5C26.25 24.7321 26.1578 24.9546 25.9937 25.1187C25.8296 25.2828 25.6071 25.375 25.375 25.375H18.375C18.1429 25.375 17.9204 25.2828 17.7563 25.1187C17.5922 24.9546 17.5 24.7321 17.5 24.5ZM17.5 28C17.5 27.7679 17.5922 27.5454 17.7563 27.3813C17.9204 27.2172 18.1429 27.125 18.375 27.125H25.375C25.6071 27.125 25.8296 27.2172 25.9937 27.3813C26.1578 27.5454 26.25 27.7679 26.25 28C26.25 28.2321 26.1578 28.4546 25.9937 28.6187C25.8296 28.7828 25.6071 28.875 25.375 28.875H18.375C18.1429 28.875 17.9204 28.7828 17.7563 28.6187C17.5922 28.4546 17.5 28.2321 17.5 28ZM10.5 24.5V27.125H13.125V24.5H10.5ZM9.62501 22.75H14C14.2321 22.75 14.4546 22.8422 14.6187 23.0063C14.7828 23.1704 14.875 23.3929 14.875 23.625V28C14.875 28.2321 14.7828 28.4546 14.6187 28.6187C14.4546 28.7828 14.2321 28.875 14 28.875H9.62501C9.39295 28.875 9.17039 28.7828 9.00629 28.6187C8.8422 28.4546 8.75001 28.2321 8.75001 28V23.625C8.75001 23.3929 8.8422 23.1704 9.00629 23.0063C9.17039 22.8422 9.39295 22.75 9.62501 22.75V22.75ZM15.4936 12.5064C15.6577 12.6705 15.7498 12.893 15.7498 13.125C15.7498 13.357 15.6577 13.5795 15.4936 13.7436L11.375 17.8622L9.00639 15.4936C8.92281 15.4129 8.85615 15.3164 8.8103 15.2096C8.76444 15.1029 8.7403 14.988 8.73929 14.8719C8.73828 14.7557 8.76042 14.6405 8.80442 14.5329C8.84841 14.4254 8.91338 14.3277 8.99554 14.2455C9.0777 14.1634 9.17539 14.0984 9.28293 14.0544C9.39046 14.0104 9.50568 13.9883 9.62186 13.9893C9.73804 13.9903 9.85286 14.0144 9.95961 14.0603C10.0664 14.1061 10.1629 14.1728 10.2436 14.2564L11.375 15.3878L14.2564 12.5064C14.4205 12.3423 14.643 12.2502 14.875 12.2502C15.107 12.2502 15.3295 12.3423 15.4936 12.5064V12.5064Z" fill="#333333"/>
</svg>
