<svg width="42" height="42" viewBox="0 0 42 42" fill="none" xmlns="http://www.w3.org/2000/svg">
<path d="M21 2.625C10.8527 2.625 2.625 10.8527 2.625 21C2.625 31.1473 10.8527 39.375 21 39.375C31.1473 39.375 39.375 31.1473 39.375 21C39.375 10.8527 31.1473 2.625 21 2.625ZM21 36.2578C12.5754 36.2578 5.74219 29.4246 5.74219 21C5.74219 12.5754 12.5754 5.74219 21 5.74219C29.4246 5.74219 36.2578 12.5754 36.2578 21C36.2578 29.4246 29.4246 36.2578 21 36.2578Z" fill="#333333"/>
<path d="M19.0312 13.7812C19.0313 14.3034 19.2387 14.8042 19.6079 15.1734C19.9771 15.5426 20.4779 15.75 21 15.75C21.5221 15.75 22.0229 15.5426 22.3921 15.1734C22.7613 14.8042 22.9688 14.3034 22.9688 13.7812C22.9688 13.2591 22.7613 12.7583 22.3921 12.3891C22.0229 12.0199 21.5221 11.8125 21 11.8125C20.4779 11.8125 19.9771 12.0199 19.6079 12.3891C19.2387 12.7583 19.0313 13.2591 19.0312 13.7812V13.7812ZM21.9844 18.375H20.0156C19.8352 18.375 19.6875 18.5227 19.6875 18.7031V29.8594C19.6875 30.0398 19.8352 30.1875 20.0156 30.1875H21.9844C22.1648 30.1875 22.3125 30.0398 22.3125 29.8594V18.7031C22.3125 18.5227 22.1648 18.375 21.9844 18.375Z" fill="#333333"/>
</svg>
