<svg width="39" height="39" viewBox="0 0 39 39" fill="none" xmlns="http://www.w3.org/2000/svg">
<path d="M21.125 26V27.625C21.125 28.9179 20.6114 30.1579 19.6971 31.0721C18.7829 31.9864 17.5429 32.5 16.25 32.5H9.75C8.45707 32.5 7.21709 31.9864 6.30285 31.0721C5.38861 30.1579 4.875 28.9179 4.875 27.625V11.375C4.875 10.0821 5.38861 8.84209 6.30285 7.92785C7.21709 7.01361 8.45707 6.5 9.75 6.5H16.25C17.5429 6.5 18.7829 7.01361 19.6971 7.92785C20.6114 8.84209 21.125 10.0821 21.125 11.375V13M27.625 26L34.125 19.5L27.625 26ZM34.125 19.5L27.625 13L34.125 19.5ZM34.125 19.5H11.375H34.125Z" stroke="#666666" stroke-width="2" stroke-linecap="round" stroke-linejoin="round"/>
</svg>
