<svg width="42" height="42" viewBox="0 0 42 42" fill="none" xmlns="http://www.w3.org/2000/svg">
<path d="M37.8 15.4833V30.45C37.8 31.8424 37.2469 33.1778 36.2623 34.1623C35.2778 35.1469 33.9424 35.7 32.55 35.7H9.45001C8.05763 35.7 6.72227 35.1469 5.7377 34.1623C4.75314 33.1778 4.20001 31.8424 4.20001 30.45V15.4833L20.4666 25.0551C20.6282 25.1504 20.8124 25.2007 21 25.2007C21.1876 25.2007 21.3718 25.1504 21.5334 25.0551L37.8 15.4833ZM32.55 8.40002C33.8418 8.39982 35.0884 8.8759 36.0511 9.73718C37.0139 10.5985 37.6254 11.7845 37.7685 13.0683L21 22.932L4.23151 13.0683C4.37464 11.7845 4.98609 10.5985 5.94888 9.73718C6.91167 8.8759 8.1582 8.39982 9.45001 8.40002H32.55Z" fill="#333333"/>
</svg>
