<svg width="42" height="42" viewBox="0 0 42 42" fill="none" xmlns="http://www.w3.org/2000/svg">
<path d="M33.2447 35C18.3155 35.021 6.98424 23.555 6.99999 8.75525C6.99999 7.7875 7.78399 7 8.74999 7H13.37C14.2362 7 14.973 7.637 15.1007 8.4945C15.4054 10.5508 16.0036 12.5528 16.877 14.4393L17.0572 14.8277C17.1783 15.0892 17.2044 15.3847 17.1309 15.6633C17.0574 15.9418 16.889 16.186 16.6547 16.3538C15.2232 17.3758 14.6772 19.432 15.792 21.035C17.1955 23.0533 18.9471 24.8056 20.965 26.2098C22.5697 27.3228 24.626 26.7768 25.6462 25.347C25.8138 25.112 26.0582 24.943 26.3372 24.8692C26.6161 24.7954 26.9122 24.8214 27.174 24.9428L27.5607 25.1212C29.4472 25.9962 31.4492 26.5948 33.5055 26.8993C34.363 27.027 35 27.7638 35 28.6318V33.25C35 33.48 34.9547 33.7077 34.8666 33.9201C34.7786 34.1325 34.6495 34.3255 34.4868 34.4881C34.3241 34.6506 34.131 34.7795 33.9185 34.8673C33.7059 34.9551 33.4782 35.0002 33.2482 35H33.2447Z" fill="#333333"/>
</svg>
