<svg width="42" height="42" viewBox="0 0 42 42" fill="none" xmlns="http://www.w3.org/2000/svg">
<path d="M37.3078 35.0478L26.6561 24.3961C28.309 22.2592 29.2031 19.6465 29.2031 16.8984C29.2031 13.609 27.9193 10.5246 25.5978 8.19902C23.2764 5.87344 20.1838 4.59375 16.8984 4.59375C13.6131 4.59375 10.5205 5.87754 8.19902 8.19902C5.87344 10.5205 4.59375 13.609 4.59375 16.8984C4.59375 20.1838 5.87754 23.2764 8.19902 25.5978C10.5205 27.9234 13.609 29.2031 16.8984 29.2031C19.6465 29.2031 22.2551 28.309 24.392 26.6602L35.0437 37.3078C35.075 37.3391 35.1121 37.3639 35.1529 37.3808C35.1937 37.3977 35.2375 37.4064 35.2816 37.4064C35.3258 37.4064 35.3696 37.3977 35.4104 37.3808C35.4512 37.3639 35.4883 37.3391 35.5195 37.3078L37.3078 35.5236C37.3391 35.4924 37.3639 35.4553 37.3808 35.4145C37.3977 35.3737 37.4064 35.3299 37.4064 35.2857C37.4064 35.2416 37.3977 35.1978 37.3808 35.157C37.3639 35.1162 37.3391 35.0791 37.3078 35.0478ZM23.3953 23.3953C21.6562 25.1303 19.3512 26.0859 16.8984 26.0859C14.4457 26.0859 12.1406 25.1303 10.4016 23.3953C8.6666 21.6562 7.71094 19.3512 7.71094 16.8984C7.71094 14.4457 8.6666 12.1365 10.4016 10.4016C12.1406 8.6666 14.4457 7.71094 16.8984 7.71094C19.3512 7.71094 21.6604 8.6625 23.3953 10.4016C25.1303 12.1406 26.0859 14.4457 26.0859 16.8984C26.0859 19.3512 25.1303 21.6604 23.3953 23.3953Z" fill="#333333"/>
</svg>
