<svg width="39" height="39" viewBox="0 0 39 39" fill="none" xmlns="http://www.w3.org/2000/svg">
<path d="M32.906 20.4263V18.5616L35.246 16.5141C35.6774 16.1339 35.9604 15.6135 36.0452 15.0448C36.1299 14.4761 36.0109 13.8957 35.7092 13.4063L32.8329 8.53129C32.6192 8.16111 32.3119 7.85364 31.9418 7.63973C31.5717 7.42581 31.1519 7.31298 30.7245 7.31254C30.4596 7.31051 30.1961 7.35167 29.9445 7.43441L26.9829 8.43379C26.4716 8.09401 25.9382 7.78865 25.3864 7.51973L24.7648 4.44848C24.6533 3.88737 24.3481 3.38334 23.9025 3.02461C23.4568 2.66589 22.8993 2.47533 22.3273 2.48629H16.6235C16.0516 2.47533 15.494 2.66589 15.0484 3.02461C14.6027 3.38334 14.2975 3.88737 14.186 4.44848L13.5645 7.51973C13.0086 7.78858 12.4712 8.09394 11.9557 8.43379L9.0551 7.38566C8.80075 7.31939 8.53734 7.2947 8.2751 7.31254C7.84766 7.31298 7.42784 7.42581 7.05777 7.63973C6.6877 7.85364 6.38039 8.16111 6.16666 8.53129L3.29041 13.4063C3.00594 13.895 2.90023 14.4674 2.99139 15.0255C3.08255 15.5835 3.36491 16.0926 3.7901 16.4654L6.09354 18.5738V20.4385L3.7901 22.486C3.3529 22.8613 3.06282 23.3795 2.97134 23.9484C2.87987 24.5173 2.99291 25.1003 3.29041 25.5938L6.16666 30.4688C6.38039 30.839 6.6877 31.1464 7.05777 31.3604C7.42784 31.5743 7.84766 31.6871 8.2751 31.6875C8.54 31.6896 8.80345 31.6484 9.0551 31.5657L12.0167 30.5663C12.528 30.9061 13.0613 31.2114 13.6132 31.4803L14.2348 34.5516C14.3462 35.1127 14.6515 35.6167 15.0971 35.9755C15.5427 36.3342 16.1003 36.5247 16.6723 36.5138H22.4248C22.9968 36.5247 23.5543 36.3342 24 35.9755C24.4456 35.6167 24.7508 35.1127 24.8623 34.5516L25.4839 31.4803C26.0397 31.2115 26.5771 30.9061 27.0926 30.5663L30.042 31.5657C30.2936 31.6484 30.5571 31.6896 30.822 31.6875C31.2494 31.6871 31.6692 31.5743 32.0393 31.3604C32.4094 31.1464 32.7167 30.839 32.9304 30.4688L35.7092 25.5938C35.9936 25.1051 36.0993 24.5327 36.0082 23.9746C35.917 23.4165 35.6347 22.9075 35.2095 22.5347L32.906 20.4263ZM30.7245 29.25L26.5442 27.8363C25.5656 28.6652 24.4472 29.3131 23.2414 29.7497L22.376 34.125H16.6235L15.7582 29.7985C14.5619 29.3495 13.4496 28.7026 12.4676 27.885L8.2751 29.25L5.39885 24.375L8.71385 21.45C8.4885 20.1885 8.4885 18.8969 8.71385 17.6354L5.39885 14.625L8.2751 9.75004L12.4554 11.1638C13.434 10.3349 14.5524 9.68697 15.7582 9.25035L16.6235 4.87504H22.376L23.2414 9.2016C24.4377 9.65062 25.55 10.2974 26.532 11.115L30.7245 9.75004L33.6007 14.625L30.2857 17.55C30.5111 18.8116 30.5111 20.1031 30.2857 21.3647L33.6007 24.375L30.7245 29.25Z" fill="#666666"/>
<path d="M19.5 26.8125C18.0537 26.8125 16.6399 26.3836 15.4374 25.5801C14.2349 24.7766 13.2976 23.6346 12.7441 22.2984C12.1907 20.9622 12.0459 19.4919 12.328 18.0734C12.6102 16.6549 13.3066 15.352 14.3293 14.3293C15.352 13.3066 16.6549 12.6102 18.0734 12.328C19.4919 12.0459 20.9622 12.1907 22.2984 12.7441C23.6346 13.2976 24.7766 14.2349 25.5801 15.4374C26.3836 16.6399 26.8125 18.0537 26.8125 19.5C26.8223 20.463 26.6398 21.4183 26.2758 22.3099C25.9118 23.2015 25.3735 24.0115 24.6925 24.6925C24.0115 25.3735 23.2015 25.9118 22.3099 26.2758C21.4183 26.6398 20.463 26.8223 19.5 26.8125V26.8125ZM19.5 14.625C18.8557 14.61 18.2151 14.7258 17.6168 14.9655C17.0186 15.2052 16.4751 15.5637 16.0194 16.0194C15.5637 16.4751 15.2052 17.0186 14.9655 17.6168C14.7258 18.2151 14.61 18.8557 14.625 19.5C14.61 20.1443 14.7258 20.7849 14.9655 21.3832C15.2052 21.9814 15.5637 22.5249 16.0194 22.9806C16.4751 23.4363 17.0186 23.7948 17.6168 24.0345C18.2151 24.2742 18.8557 24.39 19.5 24.375C20.1443 24.39 20.7849 24.2742 21.3832 24.0345C21.9814 23.7948 22.5249 23.4363 22.9806 22.9806C23.4363 22.5249 23.7948 21.9814 24.0345 21.3832C24.2742 20.7849 24.39 20.1443 24.375 19.5C24.39 18.8557 24.2742 18.2151 24.0345 17.6168C23.7948 17.0186 23.4363 16.4751 22.9806 16.0194C22.5249 15.5637 21.9814 15.2052 21.3832 14.9655C20.7849 14.7258 20.1443 14.61 19.5 14.625Z" fill="#666666"/>
</svg>
