<svg width="42" height="42" viewBox="0 0 42 42" fill="none" xmlns="http://www.w3.org/2000/svg">
<path d="M37.1602 9.25315L21.4102 4.00315C21.1429 3.92091 20.8571 3.92091 20.5898 4.00315L4.85625 9.25315H4.82344L4.65938 9.33518H4.64297L4.47891 9.43362C4.47891 9.45002 4.4625 9.45002 4.4461 9.46643L4.31485 9.58127L4.2 9.71252C4.2 9.72893 4.1836 9.72893 4.1836 9.74534L4.08516 9.89299C4.08516 9.9094 4.08516 9.9094 4.06875 9.92581L4.00313 10.0735L3.95391 10.2539V10.3031C3.93773 10.3674 3.93219 10.4339 3.9375 10.5V23.625C3.9375 23.9731 4.07578 24.307 4.32193 24.5531C4.56807 24.7992 4.90191 24.9375 5.25 24.9375C5.5981 24.9375 5.93194 24.7992 6.17808 24.5531C6.42422 24.307 6.5625 23.9731 6.5625 23.625V12.3211L12.075 14.1586C11.0394 15.8163 10.4934 17.7329 10.5 19.6875C10.5006 21.4652 10.9525 23.2135 11.8134 24.7688C12.6742 26.3241 13.9158 27.6353 15.4219 28.5797C12.2922 29.7637 9.62039 31.9126 7.79297 34.7157C7.60671 35.0102 7.5436 35.3661 7.61725 35.7068C7.6909 36.0474 7.89541 36.3455 8.18672 36.5367C8.32968 36.6315 8.49001 36.6969 8.65843 36.7292C8.82685 36.7615 9.00001 36.7601 9.16787 36.725C9.33573 36.6899 9.49495 36.6218 9.63632 36.5247C9.77768 36.4276 9.89838 36.3035 9.99141 36.1594C11.1827 34.3244 12.8138 32.8162 14.7365 31.7722C16.6591 30.7281 18.8122 30.1812 21 30.1812C23.1878 30.1812 25.3409 30.7281 27.2635 31.7722C29.1862 32.8162 30.8173 34.3244 32.0086 36.1594C32.1284 36.3413 32.2916 36.4906 32.4835 36.5937C32.6754 36.6968 32.89 36.7505 33.1078 36.75C33.3592 36.7527 33.6054 36.6782 33.8133 36.5367C34.1046 36.3455 34.3091 36.0474 34.3827 35.7068C34.4564 35.3661 34.3933 35.0102 34.207 34.7157C32.3796 31.9126 29.7078 29.7637 26.5781 28.5797C28.0842 27.6353 29.3258 26.3241 30.1866 24.7688C31.0475 23.2135 31.4994 21.4652 31.5 19.6875C31.5066 17.7329 30.9606 15.8163 29.925 14.1586L37.1602 11.7469C37.4227 11.6606 37.6514 11.4936 37.8135 11.2697C37.9756 11.0458 38.0628 10.7764 38.0628 10.5C38.0628 10.2236 37.9756 9.95426 37.8135 9.73036C37.6514 9.50647 37.4227 9.33946 37.1602 9.25315V9.25315ZM21 27.5625C18.9114 27.5625 16.9084 26.7328 15.4315 25.256C13.9547 23.7791 13.125 21.7761 13.125 19.6875C13.1282 18.0071 13.6622 16.3706 14.6508 15.0117L20.5898 16.9969C20.8563 17.0845 21.1437 17.0845 21.4102 16.9969L27.3492 15.0117C28.3378 16.3706 28.8718 18.0071 28.875 19.6875C28.875 21.7761 28.0453 23.7791 26.5685 25.256C25.0916 26.7328 23.0886 27.5625 21 27.5625Z" fill="#666666"/>
</svg>
