<svg width="42" height="42" viewBox="0 0 42 42" fill="none" xmlns="http://www.w3.org/2000/svg">
<path d="M11.6667 6.06665H32.6667V7.87498H11.6667V6.06665Z" fill="#333333"/>
<path d="M33.8333 9.33325H11.5033C11.2056 9.32903 10.9118 9.26455 10.6397 9.14371C10.3675 9.02286 10.1227 8.84815 9.9199 8.63011C9.71713 8.41206 9.56061 8.15521 9.45979 7.87504C9.35898 7.59486 9.31595 7.29717 9.33331 6.99992C9.33186 6.40837 9.55515 5.83834 9.95801 5.40517C10.3609 4.97199 10.9132 4.70799 11.5033 4.66659H33.8333C34.1427 4.66659 34.4395 4.54367 34.6583 4.32488C34.8771 4.10608 35 3.80934 35 3.49992C35 3.1905 34.8771 2.89375 34.6583 2.67496C34.4395 2.45617 34.1427 2.33325 33.8333 2.33325H11.5033C10.2942 2.3756 9.14872 2.8859 8.30857 3.75652C7.46842 4.62714 6.99924 5.79003 6.99998 6.99992C6.98869 7.19031 6.98869 7.3812 6.99998 7.57158C6.98874 7.66458 6.98874 7.75859 6.99998 7.85159V34.9999C6.99924 36.2098 7.46842 37.3727 8.30857 38.2433C9.14872 39.1139 10.2942 39.6242 11.5033 39.6666H33.8333C34.1427 39.6666 34.4395 39.5437 34.6583 39.3249C34.8771 39.1061 35 38.8093 35 38.4999V10.5816C35.0007 10.2642 34.8804 9.95844 34.6637 9.72654C34.447 9.49465 34.15 9.35402 33.8333 9.33325V9.33325ZM32.6666 37.3333H11.5033C10.9132 37.2918 10.3609 37.0278 9.95801 36.5947C9.55515 36.1615 9.33186 35.5915 9.33331 34.9999V11.1416C9.99667 11.5075 10.746 11.6888 11.5033 11.6666H32.6666V37.3333Z" fill="#333333"/>
</svg>
