<svg width="42" height="42" viewBox="0 0 42 42" fill="none" xmlns="http://www.w3.org/2000/svg">
<path d="M15.75 22.75C19.616 22.75 22.75 19.616 22.75 15.75C22.75 11.884 19.616 8.75 15.75 8.75C11.884 8.75 8.75 11.884 8.75 15.75C8.75 19.616 11.884 22.75 15.75 22.75Z" stroke="#333333" stroke-width="2" stroke-linecap="round" stroke-linejoin="round"/>
<path d="M26.25 22.75C27.4197 22.7499 28.5707 22.4568 29.5979 21.8973C30.6251 21.3378 31.4957 20.5298 32.1302 19.5472C32.7647 18.5646 33.1428 17.4386 33.2301 16.2722C33.3174 15.1058 33.111 13.9361 32.6297 12.87C32.1485 11.8039 31.4078 10.8754 30.4753 10.1693C29.5428 9.46324 28.4482 9.00208 27.2915 8.82798C26.1349 8.65388 24.953 8.77239 23.854 9.17269C22.755 9.57299 21.7737 10.2423 21 11.1195M28 33.25C28 27.4505 22.5155 22.75 15.75 22.75C8.9845 22.75 3.5 27.4505 3.5 33.25H28Z" stroke="#333333" stroke-width="2" stroke-linecap="round" stroke-linejoin="round"/>
<path d="M38.5 33.2501C38.5 27.4506 33.0155 22.7501 26.25 22.7501C24.8378 22.7501 22.5698 22.2374 21 20.5889" stroke="#333333" stroke-width="2" stroke-linecap="round" stroke-linejoin="round"/>
</svg>
